# xmcd
#
# Track frame offsets: 
#        150
#        22275
#        38867
#        57933
#        75390
#        95249
#        115605
#        134245
#        154432
#        174364
#        192795
#
# Disc length: 2869 seconds
#
# Revision: 4
# Processed by: cddbd v1.5.2PL0 Copyright (c) Steve Scherf et al.
# Submitted via: ExactAudioCopy v1.0b1
#
DISCID=970b330b
DTITLE=倉木麻衣 - DIAMOND WAVE
DYEAR=2006
DGENRE=J-Pop
TTITLE0=01_Diamond Wave
TTITLE1=02_Ready for love
TTITLE2=03_ベスト オブ ヒーロー
TTITLE3=04_Juliet
TTITLE4=05_Growing of my heart
TTITLE5=06_会いたくて...
TTITLE6=07_ホログラム
TTITLE7=08_State of mind
TTITLE8=09_今 君とここに
TTITLE9=10_Cherish the day
TTITLE10=11_Voice of Safest Place
EXTD=
EXTT0=
EXTT1=
EXTT2=
EXTT3=
EXTT4=
EXTT5=
EXTT6=
EXTT7=
EXTT8=
EXTT9=
EXTT10=
PLAYORDER=
